<?xml version="1.0" encoding="UTF-8" standalone="no"?>
<!-- Generator: Adobe Illustrator 17.0.0, SVG Export Plug-In . SVG Version: 6.00 Build 0)  -->

<svg
   xmlns:dc="http://purl.org/dc/elements/1.1/"
   xmlns:cc="http://creativecommons.org/ns#"
   xmlns:rdf="http://www.w3.org/1999/02/22-rdf-syntax-ns#"
   xmlns:svg="http://www.w3.org/2000/svg"
   xmlns="http://www.w3.org/2000/svg"
   xmlns:sodipodi="http://sodipodi.sourceforge.net/DTD/sodipodi-0.dtd"
   xmlns:inkscape="http://www.inkscape.org/namespaces/inkscape"
   version="1.1"
   id="Layer_1"
   x="0px"
   y="0px"
   width="100px"
   height="100px"
   viewBox="0 0 100 100"
   enable-background="new 0 0 100 100"
   xml:space="preserve"
   inkscape:version="0.91 r13725"
   sodipodi:docname="checkbox.svg"><metadata
     id="metadata17"><rdf:RDF><cc:Work
         rdf:about=""><dc:format>image/svg+xml</dc:format><dc:type
           rdf:resource="http://purl.org/dc/dcmitype/StillImage" /></cc:Work></rdf:RDF></metadata><defs
     id="defs15" /><sodipodi:namedview
     pagecolor="#ffffff"
     bordercolor="#666666"
     borderopacity="1"
     objecttolerance="10"
     gridtolerance="10"
     guidetolerance="10"
     inkscape:pageopacity="0"
     inkscape:pageshadow="2"
     inkscape:window-width="907"
     inkscape:window-height="480"
     id="namedview13"
     showgrid="false"
     inkscape:zoom="2.36"
     inkscape:cx="50"
     inkscape:cy="50"
     inkscape:window-x="0"
     inkscape:window-y="27"
     inkscape:window-maximized="0"
     inkscape:current-layer="Layer_1" /><g
     id="g3"
     style="fill:#ffffff"><g
       id="g5"
       style="fill:#ffffff"><path
         fill="#231F20"
         d="M92.038,24.333l-8.62-8.622c-0.303-0.302-0.712-0.473-1.141-0.473c-0.428,0-0.838,0.171-1.141,0.473    L49.987,46.86l-6.07-6.068c-0.63-0.63-1.651-0.63-2.282,0l-8.622,8.622c-0.303,0.302-0.473,0.713-0.473,1.141    c0,0.427,0.17,0.838,0.473,1.141l15.782,15.778c0.302,0.302,0.712,0.473,1.141,0.473c0.019,0,0.037-0.01,0.056-0.01    c0.016,0,0.033,0.009,0.05,0.009c0.414,0,0.825-0.158,1.141-0.473l40.855-40.857C92.668,25.984,92.668,24.963,92.038,24.333z"
         id="path7"
         style="fill:#ffffff" /><g
         id="g9"
         style="fill:#ffffff"><path
           d="M72.022,53.625v21.159H27.978V30.74h31.06l9.979-9.978H23.193v0.007c-0.023,0-0.044-0.007-0.068-0.007     c-2.788,0-5.045,2.229-5.113,5H18v54h0.013c0.067,2.728,2.259,4.92,4.987,4.987v0.013h0.125l0.001,0c0,0,0,0,0,0h53.748l0.001,0     c0,0,0,0,0,0H77v-0.013c2.729-0.067,4.92-2.259,4.987-4.987H82V43.647L72.022,53.625z"
           id="path11"
           style="fill:#ffffff" /></g></g></g></svg>