<?xml version="1.0" encoding="UTF-8" standalone="no"?>
<!-- Generator: Adobe Illustrator 17.0.0, SVG Export Plug-In . SVG Version: 6.00 Build 0)  -->

<svg
   xmlns:dc="http://purl.org/dc/elements/1.1/"
   xmlns:cc="http://creativecommons.org/ns#"
   xmlns:rdf="http://www.w3.org/1999/02/22-rdf-syntax-ns#"
   xmlns:svg="http://www.w3.org/2000/svg"
   xmlns="http://www.w3.org/2000/svg"
   xmlns:sodipodi="http://sodipodi.sourceforge.net/DTD/sodipodi-0.dtd"
   xmlns:inkscape="http://www.inkscape.org/namespaces/inkscape"
   version="1.1"
   id="Layer_1"
   x="0px"
   y="0px"
   width="100px"
   height="100px"
   viewBox="0 0 100 100"
   enable-background="new 0 0 100 100"
   xml:space="preserve"
   inkscape:version="0.91 r13725"
   sodipodi:docname="loop.svg"
   inkscape:export-filename="/media/dados/Tramps/workspace/trabalhos/crt/src/main/java/xyz/syslunch/crt/view/icons/loop.png"
   inkscape:export-xdpi="360"
   inkscape:export-ydpi="360"><metadata
     id="metadata13"><rdf:RDF><cc:Work
         rdf:about=""><dc:format>image/svg+xml</dc:format><dc:type
           rdf:resource="http://purl.org/dc/dcmitype/StillImage" /></cc:Work></rdf:RDF></metadata><defs
     id="defs11" /><sodipodi:namedview
     pagecolor="#ffffff"
     bordercolor="#666666"
     borderopacity="1"
     objecttolerance="10"
     gridtolerance="10"
     guidetolerance="10"
     inkscape:pageopacity="0"
     inkscape:pageshadow="2"
     inkscape:window-width="1366"
     inkscape:window-height="704"
     id="namedview9"
     showgrid="false"
     inkscape:zoom="1.18"
     inkscape:cx="-293.12786"
     inkscape:cy="99.794375"
     inkscape:window-x="0"
     inkscape:window-y="27"
     inkscape:window-maximized="1"
     inkscape:current-layer="Layer_1" /><g
     id="g3"
     style="fill:#ffffff"><path
       d="M83.729,23.57c-0.007-0.562-0.32-1.084-0.825-1.337c-0.503-0.259-1.107-0.212-1.568,0.114l-5.944,4.262l-0.468,0.336   c-6.405-6.391-15.196-10.389-24.938-10.389c-13.284,0-24.878,7.354-30.941,18.201l0.024,0.013   c-0.548,1.183-0.124,2.607,1.026,3.271c0.001,0,0.001,0,0.002,0.001l8.136,4.697c1.218,0.704,2.777,0.287,3.48-0.932   c0.006-0.011,0.009-0.023,0.015-0.034c3.591-6.404,10.438-10.747,18.289-10.747c4.879,0,9.352,1.696,12.914,4.5l-1.001,0.719   l-5.948,4.262c-0.455,0.327-0.696,0.89-0.611,1.447c0.081,0.558,0.471,1.028,1.008,1.208l25.447,8.669   c0.461,0.162,0.966,0.084,1.367-0.203c0.399-0.29,0.629-0.746,0.627-1.23L83.729,23.57z"
       id="path5"
       style="fill:#ffffff" /><path
       d="M79.904,61.958c0,0-0.001,0-0.002-0.001l-8.136-4.697c-1.218-0.704-2.777-0.287-3.48,0.932   c-0.006,0.011-0.009,0.023-0.015,0.034c-3.591,6.404-10.438,10.747-18.289,10.747c-4.879,0-9.352-1.696-12.914-4.5l1.001-0.719   l5.948-4.262c0.455-0.327,0.696-0.89,0.611-1.447c-0.081-0.558-0.471-1.028-1.008-1.208l-25.447-8.669   c-0.461-0.162-0.966-0.084-1.367,0.203c-0.399,0.29-0.629,0.746-0.627,1.23l0.092,26.828c0.007,0.562,0.32,1.084,0.825,1.337   c0.503,0.259,1.107,0.212,1.568-0.114l5.944-4.262l0.468-0.336c6.405,6.391,15.196,10.389,24.938,10.389   c13.284,0,24.878-7.354,30.941-18.201L80.93,65.23C81.478,64.046,81.055,62.623,79.904,61.958z"
       id="path7"
       style="fill:#ffffff" /></g></svg>