<?xml version="1.0" encoding="UTF-8" standalone="no"?>
<!-- Generator: Adobe Illustrator 17.0.0, SVG Export Plug-In . SVG Version: 6.00 Build 0)  -->

<svg
   xmlns:dc="http://purl.org/dc/elements/1.1/"
   xmlns:cc="http://creativecommons.org/ns#"
   xmlns:rdf="http://www.w3.org/1999/02/22-rdf-syntax-ns#"
   xmlns:svg="http://www.w3.org/2000/svg"
   xmlns="http://www.w3.org/2000/svg"
   xmlns:sodipodi="http://sodipodi.sourceforge.net/DTD/sodipodi-0.dtd"
   xmlns:inkscape="http://www.inkscape.org/namespaces/inkscape"
   version="1.1"
   id="Layer_1"
   x="0px"
   y="0px"
   width="100px"
   height="100px"
   viewBox="0 0 100 100"
   enable-background="new 0 0 100 100"
   xml:space="preserve"
   inkscape:version="0.91 r13725"
   sodipodi:docname="alert.svg"
   inkscape:export-filename="/media/dados/Tramps/workspace/trabalhos/crt/src/main/java/xyz/syslunch/crt/view/icons/alert.png"
   inkscape:export-xdpi="360"
   inkscape:export-ydpi="360"><metadata
     id="metadata11"><rdf:RDF><cc:Work
         rdf:about=""><dc:format>image/svg+xml</dc:format><dc:type
           rdf:resource="http://purl.org/dc/dcmitype/StillImage" /></cc:Work></rdf:RDF></metadata><defs
     id="defs9" /><sodipodi:namedview
     pagecolor="#ffffff"
     bordercolor="#666666"
     borderopacity="1"
     objecttolerance="10"
     gridtolerance="10"
     guidetolerance="10"
     inkscape:pageopacity="0"
     inkscape:pageshadow="2"
     inkscape:window-width="1366"
     inkscape:window-height="704"
     id="namedview7"
     showgrid="false"
     inkscape:zoom="2.36"
     inkscape:cx="-51.694915"
     inkscape:cy="50"
     inkscape:window-x="0"
     inkscape:window-y="27"
     inkscape:window-maximized="1"
     inkscape:current-layer="Layer_1" /><g
     id="g3"
     style="fill:#ffffff"><path
       d="M91.17,81.374l0.006-0.004l-0.139-0.24c-0.068-0.128-0.134-0.257-0.216-0.375l-37.69-65.283   c-0.611-1.109-1.776-1.87-3.133-1.87c-1.47,0-2.731,0.887-3.285,2.153l-0.004-0.002L9.312,80.529l0.036,0.021   c-0.505,0.618-0.82,1.397-0.82,2.257c0,1.982,1.607,3.59,3.588,3.59h0h75.767v0c1.982,0,3.589-1.607,3.589-3.589   C91.472,82.297,91.362,81.814,91.17,81.374z M50.035,79.617c-2.874,0-5.201-2.257-5.201-5.13c0-2.874,2.326-5.2,5.201-5.2   c2.803,0,5.13,2.325,5.13,5.2C55.166,77.36,52.838,79.617,50.035,79.617z M55.165,34.25v28.299h-0.002   c0,0.005,0.002,0.01,0.002,0.016c0,1.173-0.95,2.094-2.094,2.094c-0.005,0-0.009-0.001-0.014-0.001v0.001h-6.093   c-1.174,0-2.123-0.921-2.123-2.094c0-0.005,0.002-0.01,0.002-0.016h-0.002V34.326c-0.001-0.026-0.008-0.051-0.008-0.077   c0-1.117,0.865-1.996,1.935-2.078v-0.016h6.288v0.001c1.149,0.007,2.074,0.897,2.103,2.039h0.005v0.053V34.25   C55.166,34.25,55.165,34.25,55.165,34.25z"
       id="path5"
       style="fill:#ffffff" /></g></svg>