<?xml version="1.0" encoding="UTF-8" standalone="no"?>
<!-- Generator: Adobe Illustrator 17.0.0, SVG Export Plug-In . SVG Version: 6.00 Build 0)  -->

<svg
   xmlns:dc="http://purl.org/dc/elements/1.1/"
   xmlns:cc="http://creativecommons.org/ns#"
   xmlns:rdf="http://www.w3.org/1999/02/22-rdf-syntax-ns#"
   xmlns:svg="http://www.w3.org/2000/svg"
   xmlns="http://www.w3.org/2000/svg"
   xmlns:sodipodi="http://sodipodi.sourceforge.net/DTD/sodipodi-0.dtd"
   xmlns:inkscape="http://www.inkscape.org/namespaces/inkscape"
   version="1.1"
   id="Layer_1"
   x="0px"
   y="0px"
   width="100px"
   height="100px"
   viewBox="0 0 100 100"
   enable-background="new 0 0 100 100"
   xml:space="preserve"
   inkscape:version="0.91 r13725"
   sodipodi:docname="x.svg"
   inkscape:export-filename="/media/dados/Tramps/workspace/trabalhos/crt/src/main/java/xyz/syslunch/crt/view/icons/x.png"
   inkscape:export-xdpi="360"
   inkscape:export-ydpi="360"><metadata
     id="metadata9"><rdf:RDF><cc:Work
         rdf:about=""><dc:format>image/svg+xml</dc:format><dc:type
           rdf:resource="http://purl.org/dc/dcmitype/StillImage" /></cc:Work></rdf:RDF></metadata><defs
     id="defs7" /><sodipodi:namedview
     pagecolor="#ffffff"
     bordercolor="#666666"
     borderopacity="1"
     objecttolerance="10"
     gridtolerance="10"
     guidetolerance="10"
     inkscape:pageopacity="0"
     inkscape:pageshadow="2"
     inkscape:window-width="907"
     inkscape:window-height="480"
     id="namedview5"
     showgrid="false"
     inkscape:zoom="2.36"
     inkscape:cx="-51.694915"
     inkscape:cy="50"
     inkscape:window-x="0"
     inkscape:window-y="27"
     inkscape:window-maximized="0"
     inkscape:current-layer="Layer_1" /><path
     d="M84.707,68.752L65.951,49.998l18.75-18.752c0.777-0.777,0.777-2.036,0-2.813L71.566,15.295  c-0.777-0.777-2.037-0.777-2.814,0L49.999,34.047l-18.75-18.752c-0.746-0.747-2.067-0.747-2.814,0L15.297,28.431  c-0.373,0.373-0.583,0.88-0.583,1.407c0,0.527,0.21,1.034,0.583,1.407L34.05,49.998L15.294,68.753  c-0.373,0.374-0.583,0.88-0.583,1.407c0,0.528,0.21,1.035,0.583,1.407l13.136,13.137c0.373,0.373,0.881,0.583,1.41,0.583  c0.525,0,1.031-0.21,1.404-0.583l18.755-18.755l18.756,18.754c0.389,0.388,0.896,0.583,1.407,0.583c0.511,0,1.019-0.195,1.408-0.583  l13.138-13.137C85.484,70.789,85.484,69.53,84.707,68.752z"
     id="path3"
     style="fill:#ffffff" /></svg>